<svg width="736" height="248" viewBox="0 0 736 248" fill="none" xmlns="http://www.w3.org/2000/svg">
<g filter="url(#filter0_ii_16893_308)">
<path d="M131.396 199.84C131.396 192.728 137.331 187.003 144.517 187.341C150.828 187.64 156.035 192.788 156.401 199.094C156.749 205.065 152.905 210.192 147.538 211.815L147.541 211.818C147.489 211.828 147.443 211.843 147.392 211.853C146.998 211.967 146.597 212.062 146.188 212.137C131.964 215.883 134.035 228.842 134.035 228.842H134.025C135.236 230.769 135.946 233.042 135.946 235.486C135.946 242.607 129.997 248.34 122.798 247.984C116.615 247.678 111.478 242.727 110.963 236.557C110.397 229.743 115.295 223.95 121.754 223.084C122.106 223.037 122.462 223.004 122.824 222.987C123.223 222.968 123.624 222.883 123.979 222.696C133.434 217.699 132.515 206.93 131.764 202.802C131.689 202.492 131.625 202.177 131.573 201.858C131.473 201.407 131.398 201.15 131.396 201.14L131.459 201.096C131.419 200.683 131.396 200.264 131.396 199.84ZM68.8273 205.332C75.738 205.332 81.3419 210.935 81.3419 217.845C81.3419 224.756 75.7381 230.359 68.8273 230.359C61.9167 230.359 56.3136 224.756 56.3136 217.845C56.3136 210.935 61.9167 205.332 68.8273 205.332ZM178.037 205.332C184.948 205.332 190.551 210.935 190.551 217.845C190.551 224.756 184.948 230.359 178.037 230.359C171.126 230.359 165.524 224.756 165.524 217.845C165.524 210.935 171.126 205.332 178.037 205.332ZM66.8058 167.652C73.6198 167.086 79.4128 171.984 80.2794 178.443C80.3256 178.795 80.3588 179.151 80.3761 179.513C80.3949 179.912 80.4798 180.313 80.6671 180.668C85.6645 190.123 96.4326 189.204 100.561 188.453C100.871 188.378 101.186 188.314 101.505 188.262C101.956 188.162 102.212 188.088 102.223 188.085L102.267 188.148C102.68 188.108 103.099 188.085 103.523 188.085C110.635 188.085 116.36 194.02 116.022 201.206C115.723 207.517 110.575 212.724 104.269 213.09C98.2983 213.438 93.1731 209.594 91.548 204.228L91.545 204.23C91.535 204.178 91.52 204.132 91.5099 204.081C91.396 203.687 91.3007 203.286 91.2257 202.877C87.4797 188.653 74.5206 190.724 74.5206 190.724V190.714C72.593 191.925 70.3208 192.635 67.8771 192.635C60.7558 192.635 55.0229 186.686 55.379 179.487C55.6847 173.304 60.6361 168.167 66.8058 167.652ZM188.276 144.477C188.276 137.365 194.211 131.639 201.397 131.977C207.708 132.276 212.916 137.423 213.282 143.73C213.63 149.701 209.786 154.828 204.419 156.452L204.422 156.455C204.37 156.465 204.324 156.479 204.272 156.489C203.878 156.603 203.478 156.698 203.068 156.773C188.875 160.511 190.907 173.423 190.916 173.478H190.904C192.116 175.404 192.826 177.679 192.826 180.123C192.826 187.244 186.878 192.977 179.679 192.621C173.496 192.315 168.359 187.364 167.844 181.194C167.277 174.38 172.175 168.586 178.635 167.719C178.987 167.673 179.342 167.64 179.704 167.623C180.104 167.604 180.505 167.519 180.859 167.332C190.315 162.334 189.395 151.566 188.644 147.438C188.569 147.128 188.505 146.812 188.453 146.494C188.352 146.039 188.278 145.781 188.276 145.776L188.34 145.733C188.3 145.319 188.277 144.901 188.276 144.477ZM29.3898 165.894C36.3004 165.894 41.9034 171.498 41.9034 178.409C41.9032 185.319 36.3003 190.922 29.3898 190.923C22.4791 190.923 16.8753 185.319 16.8751 178.409C16.8751 171.498 22.479 165.894 29.3898 165.894ZM217.476 165.894C224.386 165.894 229.989 171.498 229.989 178.409C229.989 185.319 224.386 190.922 217.476 190.923C210.565 190.923 204.962 185.319 204.962 178.409C204.962 171.498 210.565 165.894 217.476 165.894ZM133.593 153.859C136.507 154.003 138.929 156.337 139.171 159.245C139.438 162.457 137.129 165.188 134.084 165.597C133.918 165.619 133.749 165.635 133.579 165.642C133.392 165.652 133.202 165.691 133.036 165.779C128.578 168.136 129.012 173.212 129.365 175.157C129.401 175.304 129.432 175.452 129.456 175.602C129.503 175.813 129.536 175.935 129.538 175.941L129.509 175.962C129.528 176.156 129.538 176.354 129.538 176.554C129.538 179.907 126.74 182.606 123.354 182.446C120.379 182.306 117.924 179.879 117.751 176.906C117.588 174.092 119.399 171.676 121.929 170.91L121.928 170.908C121.952 170.902 121.974 170.896 121.998 170.89C122.183 170.837 122.374 170.793 122.566 170.756C129.271 168.992 128.294 162.882 128.294 162.882H128.299C127.728 161.974 127.394 160.903 127.394 159.751C127.394 156.393 130.199 153.69 133.593 153.859ZM98.3478 162.167C101.606 162.167 104.246 164.808 104.246 168.066C104.246 171.323 101.606 173.965 98.3478 173.965C95.0892 173.965 92.4484 171.323 92.4484 168.066C92.4486 164.808 95.0893 162.167 98.3478 162.167ZM149.475 162.167C152.733 162.167 155.373 164.808 155.373 168.066C155.373 171.323 152.733 173.965 149.475 173.965C146.216 173.965 143.576 171.323 143.576 168.066C143.577 164.808 146.216 162.167 149.475 162.167ZM97.0343 144.67C100.247 144.403 102.977 146.711 103.387 149.756C103.408 149.922 103.425 150.091 103.432 150.261C103.442 150.449 103.481 150.639 103.568 150.804C105.926 155.262 111.001 154.829 112.946 154.476C113.093 154.44 113.242 154.409 113.392 154.384C113.602 154.338 113.724 154.304 113.731 154.302L113.751 154.332C113.946 154.313 114.143 154.302 114.344 154.302C117.696 154.302 120.396 157.1 120.235 160.487C120.096 163.461 117.668 165.916 114.695 166.089C111.881 166.252 109.465 164.442 108.699 161.912L108.697 161.913C108.692 161.888 108.686 161.867 108.68 161.842C108.626 161.658 108.582 161.467 108.546 161.275C106.781 154.569 100.672 155.548 100.672 155.548C100.672 155.548 100.672 155.544 100.672 155.542C99.7637 156.113 98.6921 156.447 97.5402 156.447C94.1824 156.447 91.4801 153.643 91.6486 150.249C91.7927 147.335 94.1261 144.912 97.0343 144.67ZM11.4425 112.289C18.2565 111.722 24.0496 116.62 24.9161 123.08C24.9623 123.432 24.9955 123.788 25.0128 124.15C25.0316 124.549 25.1166 124.95 25.3038 125.304C30.3012 134.76 41.0693 133.841 45.1974 133.089C45.5073 133.015 45.8231 132.951 46.1417 132.899C46.5923 132.799 46.8492 132.724 46.8595 132.721L46.9034 132.785C47.3171 132.744 47.7355 132.721 48.1593 132.721C55.2718 132.722 60.9986 138.656 60.6583 145.842C60.3598 152.153 55.212 157.361 48.9054 157.727C42.9351 158.074 37.8098 154.231 36.1847 148.865L36.1818 148.867C36.1717 148.815 36.1567 148.769 36.1466 148.717C36.0327 148.324 35.9374 147.923 35.8624 147.513C32.1164 133.29 19.1573 135.361 19.1573 135.361V135.35C17.2312 136.561 14.9575 137.272 12.5138 137.272C5.39248 137.272 -0.340395 131.323 0.0157421 124.124C0.321417 117.941 5.27282 112.803 11.4425 112.289ZM160.326 127.866C163.237 128.066 165.612 130.448 165.798 133.359C166.001 136.577 163.639 139.262 160.587 139.611C160.421 139.63 160.253 139.641 160.083 139.647C159.894 139.651 159.705 139.689 159.536 139.774C155.034 142.042 155.367 147.124 155.684 149.077C155.715 149.225 155.743 149.374 155.765 149.525C155.807 149.734 155.839 149.856 155.841 149.864L155.811 149.884C155.827 150.079 155.832 150.277 155.829 150.477C155.763 153.829 152.914 156.474 149.53 156.248C146.559 156.049 144.15 153.574 144.036 150.598C143.928 147.781 145.787 145.399 148.33 144.682C148.355 144.678 148.376 144.672 148.401 144.668C148.587 144.617 148.778 144.577 148.971 144.546C155.71 142.912 154.852 136.784 154.852 136.784H154.858C154.305 135.864 153.991 134.786 154.013 133.634C154.079 130.278 156.935 127.631 160.326 127.866ZM79.757 143.576C83.0154 143.576 85.6552 146.217 85.6554 149.475C85.6554 152.732 83.0155 155.375 79.757 155.375C76.4984 155.375 73.8585 152.732 73.8585 149.475C73.8587 146.217 76.4986 143.576 79.757 143.576ZM168.065 143.576C171.323 143.576 173.963 146.217 173.963 149.475C173.963 152.732 171.323 155.375 168.065 155.375C164.806 155.375 162.166 152.732 162.166 149.475C162.166 146.217 164.806 143.576 168.065 143.576ZM128.179 136.668C129.415 136.73 130.443 137.719 130.545 138.953C130.659 140.315 129.678 141.474 128.388 141.647C128.317 141.656 128.245 141.664 128.173 141.667C128.094 141.671 128.013 141.688 127.942 141.725C126.051 142.724 126.235 144.878 126.385 145.704C126.401 145.766 126.412 145.827 126.424 145.892C126.444 145.981 126.459 146.033 126.459 146.035L126.445 146.044C126.454 146.127 126.459 146.211 126.459 146.295C126.459 147.718 125.272 148.862 123.834 148.795C122.573 148.735 121.532 147.705 121.458 146.444C121.389 145.25 122.158 144.224 123.231 143.9C123.241 143.899 123.249 143.895 123.261 143.892C123.339 143.871 123.419 143.851 123.501 143.837C126.326 143.093 125.936 140.528 125.931 140.496H125.934C125.692 140.111 125.549 139.656 125.549 139.168C125.549 137.743 126.738 136.597 128.179 136.668ZM113.191 140.191C114.572 140.191 115.692 141.311 115.692 142.694C115.692 144.077 114.572 145.197 113.191 145.197C111.808 145.197 110.688 144.076 110.688 142.694C110.688 141.311 111.808 140.191 113.191 140.191ZM134.88 140.191C136.261 140.191 137.381 141.311 137.381 142.694C137.381 144.077 136.261 145.197 134.88 145.197C133.497 145.197 132.376 144.077 132.376 142.694C132.376 141.311 133.497 140.191 134.88 140.191ZM112.711 132.502C113.906 132.456 114.916 133.244 115.22 134.323C115.223 134.333 115.224 134.343 115.227 134.353C115.248 134.432 115.265 134.513 115.278 134.595C115.971 137.448 118.561 137.091 118.57 137.089V137.092C118.961 136.857 119.419 136.724 119.907 136.733C121.33 136.762 122.453 137.974 122.354 139.413C122.268 140.647 121.259 141.655 120.024 141.734C118.658 141.82 117.519 140.818 117.372 139.523C117.364 139.453 117.358 139.38 117.357 139.308C117.354 139.229 117.339 139.149 117.303 139.077C116.34 137.167 114.185 137.309 113.356 137.443C113.294 137.456 113.23 137.468 113.166 137.476C113.078 137.494 113.027 137.508 113.023 137.509L113.014 137.497C112.932 137.504 112.846 137.506 112.763 137.505C111.34 137.476 110.218 136.268 110.315 134.832C110.398 133.572 111.448 132.551 112.711 132.502ZM70.9347 117.855C74.147 117.588 76.8786 119.897 77.2882 122.942C77.3098 123.108 77.3259 123.277 77.3331 123.447C77.3432 123.634 77.3819 123.825 77.4698 123.991C79.8273 128.449 84.9027 128.015 86.8478 127.662C86.9948 127.626 87.1432 127.595 87.2931 127.571C87.5093 127.523 87.632 127.489 87.632 127.489L87.6525 127.517C87.8468 127.499 88.0441 127.489 88.2443 127.489C91.5965 127.489 94.2958 130.286 94.1359 133.673C93.996 136.647 91.5697 139.103 88.5968 139.276C85.7823 139.439 83.3654 137.628 82.5997 135.097L82.5987 135.098C82.593 135.074 82.5869 135.052 82.5812 135.028C82.5278 134.844 82.4834 134.653 82.4474 134.462C80.6904 127.785 74.6272 128.725 74.5734 128.733C74.5734 128.733 74.5734 128.73 74.5734 128.727C73.6651 129.298 72.5935 129.632 71.4415 129.632C68.0835 129.632 65.3813 126.828 65.5499 123.434C65.6941 120.52 68.0267 118.098 70.9347 117.855ZM139.403 125.595C140.639 125.657 141.667 126.646 141.77 127.881C141.883 129.243 140.903 130.402 139.612 130.575C139.542 130.583 139.47 130.591 139.398 130.593C139.318 130.598 139.238 130.616 139.167 130.653C137.276 131.652 137.461 133.804 137.61 134.631C137.626 134.693 137.637 134.755 137.649 134.82C137.669 134.91 137.683 134.962 137.684 134.963L137.671 134.971C137.68 135.055 137.684 135.139 137.684 135.222C137.684 136.645 136.497 137.79 135.06 137.722C133.798 137.663 132.757 136.633 132.684 135.372C132.615 134.178 133.383 133.151 134.455 132.827C134.465 132.825 134.474 132.823 134.485 132.82C134.563 132.798 134.645 132.778 134.727 132.763C137.57 132.013 137.156 129.423 137.156 129.423H137.158C136.916 129.038 136.774 128.584 136.774 128.095C136.774 126.671 137.963 125.525 139.403 125.595ZM105.303 132.305C106.684 132.305 107.805 133.426 107.805 134.808C107.805 136.191 106.684 137.311 105.303 137.311C103.92 137.311 102.8 136.191 102.8 134.808C102.8 133.426 103.92 132.305 105.303 132.305ZM142.765 132.305C144.146 132.305 145.267 133.426 145.267 134.808C145.267 136.191 144.146 137.311 142.765 137.311C141.382 137.311 140.262 136.191 140.262 134.808C140.262 133.426 141.382 132.306 142.765 132.305ZM198.762 91.8112C205.576 91.2445 211.37 96.1428 212.236 102.602C212.283 102.954 212.316 103.311 212.333 103.673C212.352 104.072 212.437 104.472 212.624 104.827C217.621 114.282 228.388 113.363 232.517 112.612C232.827 112.537 233.143 112.473 233.462 112.422C233.922 112.319 234.18 112.244 234.18 112.244L234.223 112.307C234.637 112.267 235.055 112.244 235.479 112.244C242.591 112.244 248.316 118.179 247.978 125.365C247.679 131.676 242.532 136.883 236.226 137.25C230.255 137.597 225.128 133.754 223.504 128.387L223.501 128.39C223.491 128.338 223.477 128.292 223.467 128.24C223.353 127.846 223.258 127.445 223.183 127.036C219.447 112.85 206.547 114.873 206.478 114.884C206.478 114.884 206.478 114.878 206.478 114.873C204.55 116.084 202.277 116.795 199.833 116.795C192.712 116.794 186.979 110.845 187.335 103.646C187.641 97.4636 192.592 92.326 198.762 91.8112ZM101.552 121.35C102.746 121.281 103.772 122.049 104.097 123.122C104.098 123.132 104.102 123.142 104.105 123.152C104.126 123.23 104.146 123.311 104.16 123.393C104.905 126.224 107.478 125.827 107.501 125.823V125.826C107.886 125.584 108.34 125.441 108.829 125.441C110.254 125.441 111.4 126.631 111.329 128.071C111.267 129.306 110.278 130.334 109.044 130.436C107.682 130.55 106.522 129.57 106.349 128.28C106.34 128.209 106.333 128.137 106.33 128.065C106.326 127.986 106.309 127.904 106.272 127.834C105.272 125.942 103.119 126.127 102.293 126.277C102.231 126.293 102.169 126.305 102.105 126.316C102.018 126.335 101.967 126.349 101.962 126.35L101.953 126.338C101.87 126.346 101.786 126.35 101.702 126.35C100.279 126.35 99.1345 125.164 99.2023 123.726C99.2614 122.465 100.29 121.424 101.552 121.35ZM159.242 108.56C162.455 108.293 165.186 110.602 165.596 113.647C165.617 113.813 165.633 113.982 165.64 114.152C165.65 114.339 165.69 114.53 165.777 114.696C168.135 119.154 173.21 118.72 175.155 118.367C175.302 118.331 175.451 118.301 175.601 118.276C175.818 118.228 175.94 118.193 175.94 118.193L175.959 118.222C176.154 118.204 176.352 118.193 176.552 118.193C179.904 118.193 182.604 120.991 182.443 124.378C182.304 127.352 179.877 129.807 176.904 129.98C174.09 130.143 171.673 128.333 170.907 125.802L170.905 125.803C170.9 125.779 170.895 125.757 170.889 125.733C170.835 125.549 170.79 125.358 170.754 125.167C168.997 118.492 162.937 119.429 162.881 119.438V119.432C161.973 120.003 160.901 120.337 159.749 120.338C156.391 120.338 153.689 117.533 153.858 114.139C154.002 111.225 156.334 108.803 159.242 108.56ZM139.012 117.256C140.206 117.186 141.232 117.955 141.557 119.027C141.558 119.037 141.562 119.048 141.565 119.058C141.586 119.136 141.606 119.217 141.62 119.298C142.367 122.135 144.948 121.73 144.961 121.728V121.731C145.346 121.489 145.8 121.346 146.289 121.346C147.714 121.346 148.86 122.536 148.789 123.976C148.727 125.212 147.738 126.24 146.504 126.342C145.142 126.456 143.982 125.476 143.809 124.185C143.8 124.115 143.793 124.042 143.79 123.97C143.786 123.891 143.769 123.81 143.732 123.74C142.732 121.848 140.579 122.032 139.753 122.182C139.691 122.198 139.629 122.21 139.565 122.221C139.474 122.242 139.421 122.256 139.421 122.256L139.413 122.243C139.33 122.251 139.246 122.256 139.162 122.256C137.739 122.256 136.594 121.069 136.662 119.631C136.721 118.37 137.75 117.329 139.012 117.256ZM112.861 110.277C114.097 110.339 115.125 111.328 115.228 112.562C115.342 113.925 114.361 115.084 113.07 115.257C113 115.266 112.928 115.273 112.856 115.276C112.776 115.28 112.696 115.297 112.625 115.335C110.733 116.334 110.918 118.487 111.067 119.313C111.083 119.375 111.095 119.437 111.107 119.502C111.126 119.587 111.139 119.638 111.141 119.644L111.128 119.653C111.137 119.737 111.141 119.82 111.141 119.904C111.141 121.327 109.954 122.472 108.517 122.404C107.255 122.345 106.214 121.316 106.141 120.054C106.072 118.86 106.84 117.834 107.913 117.509C107.923 117.508 107.932 117.504 107.943 117.502C108.021 117.48 108.102 117.46 108.184 117.446C111.021 116.698 110.615 114.117 110.613 114.105H110.616C110.374 113.72 110.232 113.266 110.232 112.777C110.232 111.353 111.421 110.206 112.861 110.277ZM97.839 91.6539C100.753 91.7981 103.176 94.1306 103.418 97.0387C103.685 100.251 101.376 102.982 98.3312 103.391C98.1654 103.413 97.9964 103.429 97.8263 103.436C97.6389 103.446 97.4481 103.485 97.2823 103.573C92.8246 105.93 93.2582 111.005 93.6114 112.951C93.6475 113.098 93.6777 113.247 93.7023 113.397C93.7498 113.613 93.7853 113.736 93.7853 113.736L93.756 113.756C93.7747 113.95 93.7853 114.148 93.7853 114.348C93.7853 117.701 90.9876 120.4 87.6007 120.24C84.6262 120.1 82.1712 117.673 81.9982 114.7C81.8354 111.886 83.6457 109.469 86.1759 108.704L86.1749 108.702C86.1993 108.696 86.2209 108.691 86.2452 108.685C86.4297 108.632 86.62 108.586 86.8116 108.55C93.5177 106.786 92.5402 100.676 92.5402 100.676H92.546C91.9752 99.7681 91.6407 98.6965 91.6407 97.5446C91.641 94.1868 94.4452 91.4855 97.839 91.6539ZM55.5538 67.8776C55.5541 60.7652 61.488 55.0399 68.6739 55.3786C74.9849 55.677 80.1935 60.8248 80.5597 67.1315C80.907 73.102 77.0628 78.2272 71.6964 79.8522L71.6993 79.8551C71.6474 79.8652 71.6009 79.8802 71.5489 79.8903C71.1556 80.0041 70.755 80.0995 70.3458 80.1745C56.122 83.9204 58.1935 96.8795 58.1935 96.8795C58.1935 96.8795 58.1875 96.8795 58.1818 96.8795C59.3928 98.8057 60.1036 101.079 60.1036 103.523C60.1036 110.644 54.1544 116.377 46.9552 116.021C40.7727 115.715 35.6359 110.764 35.1212 104.594C34.5548 97.7805 39.4521 91.9875 45.9113 91.1207C46.2631 91.0746 46.6197 91.0414 46.9816 91.0241C47.381 91.0053 47.7821 90.9205 48.1368 90.733C57.5923 85.7356 56.6722 74.9675 55.921 70.8395C55.8461 70.5295 55.7825 70.2138 55.7306 69.8952C55.6304 69.4452 55.557 69.1883 55.5538 69.1774L55.6173 69.1334C55.577 68.7197 55.5538 68.3014 55.5538 67.8776ZM105.303 110.616C106.684 110.616 107.805 111.736 107.805 113.119C107.805 114.502 106.684 115.623 105.303 115.623C103.92 115.623 102.8 114.502 102.8 113.119C102.8 111.736 103.92 110.616 105.303 110.616ZM142.916 110.616C144.297 110.616 145.418 111.736 145.418 113.119C145.418 114.502 144.297 115.623 142.916 115.623C141.534 115.623 140.413 114.501 140.413 113.119C140.413 111.736 141.534 110.616 142.916 110.616ZM127.943 106.183C129.137 106.114 130.164 106.883 130.488 107.956C130.49 107.966 130.492 107.976 130.495 107.986C130.518 108.064 130.537 108.145 130.552 108.227C131.3 111.07 133.893 110.656 133.893 110.656V110.659C134.278 110.417 134.732 110.274 135.221 110.274C136.645 110.274 137.791 111.464 137.721 112.904C137.659 114.139 136.67 115.168 135.436 115.27C134.073 115.384 132.913 114.403 132.74 113.113C132.732 113.042 132.725 112.97 132.722 112.898C132.717 112.819 132.7 112.738 132.662 112.668C131.663 110.776 129.511 110.961 128.685 111.111C128.623 111.127 128.56 111.138 128.495 111.149C128.405 111.169 128.353 111.184 128.353 111.184L128.344 111.172C128.261 111.18 128.177 111.184 128.094 111.184C126.671 111.184 125.525 109.998 125.593 108.56C125.652 107.299 126.682 106.257 127.943 106.183ZM124.24 99.2057C125.476 99.2679 126.503 100.258 126.606 101.492C126.719 102.854 125.74 104.013 124.449 104.186C124.379 104.195 124.306 104.202 124.234 104.205C124.155 104.209 124.074 104.227 124.003 104.264C122.112 105.263 122.296 107.415 122.446 108.242C122.462 108.304 122.474 108.366 122.485 108.431C122.505 108.521 122.519 108.572 122.52 108.574L122.507 108.583C122.516 108.666 122.52 108.75 122.52 108.834C122.52 110.257 121.333 111.401 119.896 111.334C118.634 111.275 117.593 110.245 117.52 108.983C117.451 107.789 118.219 106.763 119.291 106.438C119.301 106.437 119.31 106.434 119.321 106.431C119.399 106.41 119.48 106.389 119.563 106.375C122.406 105.625 121.992 103.034 121.992 103.034H121.995C121.753 102.649 121.61 102.195 121.609 101.707C121.609 100.282 122.8 99.1351 124.24 99.2057ZM113.191 102.73C114.572 102.73 115.692 103.85 115.692 105.233C115.692 106.616 114.572 107.736 113.191 107.736C111.808 107.736 110.688 106.616 110.688 105.233C110.688 103.85 111.808 102.73 113.191 102.73ZM135.03 102.73C136.412 102.73 137.532 103.85 137.532 105.233C137.532 106.616 136.412 107.736 135.03 107.736C133.648 107.736 132.527 106.616 132.527 105.233C132.527 103.85 133.648 102.73 135.03 102.73ZM168.065 92.4518C171.323 92.4518 173.963 95.0927 173.963 98.3512C173.963 101.608 171.323 104.25 168.065 104.25C164.806 104.25 162.166 101.608 162.166 98.3512C162.166 95.0928 164.806 92.4519 168.065 92.4518ZM79.757 92.0924C83.0155 92.0924 85.6554 94.7342 85.6554 97.9928C85.6553 101.25 83.0155 103.891 79.757 103.891C76.4985 103.891 73.8586 101.25 73.8585 97.9928C73.8585 94.7343 76.4984 92.0925 79.757 92.0924ZM133.144 82.1041C136.356 81.8374 139.087 84.1459 139.496 87.1911C139.518 87.3566 139.534 87.5251 139.541 87.695C139.551 87.8824 139.59 88.0731 139.678 88.2389C142.035 92.6971 147.111 92.2631 149.056 91.9098C149.203 91.8738 149.351 91.8435 149.501 91.819C149.713 91.7727 149.833 91.7388 149.84 91.737L149.86 91.7653C150.055 91.7465 150.253 91.737 150.453 91.737C153.805 91.7371 156.505 94.5339 156.345 97.9205C156.205 100.895 153.778 103.351 150.805 103.524C147.99 103.687 145.573 101.876 144.808 99.3454L144.807 99.3473C144.801 99.3228 144.795 99.3005 144.789 99.276C144.736 99.0916 144.691 98.9013 144.655 98.7096C142.891 92.0069 136.787 92.9801 136.781 92.9811V92.9752C135.873 93.5462 134.802 93.8805 133.65 93.8805C130.292 93.8804 127.589 91.0763 127.758 87.6823C127.902 84.7683 130.235 82.3464 133.144 82.1041ZM123.936 65.5543C126.85 65.6985 129.272 68.031 129.515 70.9391C129.782 74.1515 127.473 76.8831 124.428 77.2926C124.262 77.3142 124.093 77.3294 123.923 77.3366C123.736 77.3467 123.545 77.3863 123.379 77.4743C118.921 79.8318 119.355 84.9072 119.708 86.8522C119.744 86.9991 119.774 87.1473 119.799 87.2985C119.847 87.5148 119.882 87.6364 119.882 87.6364L119.853 87.6559C119.871 87.8505 119.882 88.0483 119.882 88.2487C119.882 91.601 117.084 94.3003 113.697 94.1403C110.723 94.0004 108.267 91.5733 108.094 88.6002C107.931 85.786 109.742 83.3698 112.273 82.6041L112.272 82.6022C112.296 82.5965 112.318 82.5913 112.342 82.5856C112.526 82.5323 112.717 82.4869 112.908 82.4508C119.614 80.686 118.637 74.5768 118.637 74.5768H118.643C118.072 73.6686 117.737 72.5976 117.737 71.4459C117.737 68.088 120.542 65.3858 123.936 65.5543ZM149.475 73.86C152.733 73.8602 155.373 76.5019 155.373 79.7604C155.373 83.0174 152.733 85.6587 149.475 85.6588C146.216 85.6588 143.576 83.0175 143.576 79.7604C143.576 76.5018 146.216 73.86 149.475 73.86ZM98.3478 73.5016C101.606 73.5018 104.246 76.1435 104.246 79.402C104.246 82.6589 101.606 85.3002 98.3478 85.3004C95.0893 85.3004 92.4485 82.659 92.4484 79.402C92.4484 76.1434 95.0892 73.5016 98.3478 73.5016ZM30.1476 57.442C37.0584 57.442 42.6622 63.0459 42.6622 69.9567C42.662 76.8673 37.0583 82.4704 30.1476 82.4704C23.2371 82.4701 17.6341 76.8672 17.6339 69.9567C17.6339 63.046 23.237 57.4422 30.1476 57.442ZM217.476 57.442C224.386 57.4422 229.989 63.046 229.989 69.9567C229.989 76.8672 224.386 82.4702 217.476 82.4704C210.565 82.4704 204.962 76.8673 204.962 69.9567C204.962 63.0459 210.565 57.442 217.476 57.442ZM143.851 35.3248C150.675 34.8911 156.37 39.9018 157.109 46.3756C157.15 46.7287 157.176 47.0861 157.186 47.4479C157.197 47.8473 157.274 48.2514 157.454 48.609C162.267 58.161 173.05 57.4514 177.192 56.7809C177.504 56.7117 177.821 56.6561 178.141 56.61C178.601 56.5163 178.861 56.4469 178.861 56.4469L178.903 56.5104C179.317 56.4772 179.737 56.4641 180.16 56.4713C187.271 56.6112 192.881 62.6552 192.401 69.8356C191.978 76.1379 186.73 81.2447 180.417 81.487C174.441 81.7177 169.389 77.773 167.871 72.3776L167.868 72.3795C167.858 72.3276 167.847 72.2811 167.837 72.2291C167.73 71.8341 167.644 71.4301 167.576 71.0192C164.11 56.7263 151.112 58.5436 151.112 58.5436C151.112 58.5436 151.112 58.5376 151.112 58.5319C149.162 59.7054 146.876 60.3714 144.433 60.3239C137.313 60.184 131.699 54.1241 132.194 46.9323C132.621 40.7568 137.672 35.717 143.851 35.3248ZM111.675 12.5143C111.675 5.40168 117.61 -0.32448 124.796 0.0142961C131.107 0.312759 136.316 5.46057 136.682 11.7672C137.029 17.7378 133.185 22.8653 127.818 24.4889L127.821 24.4918C127.769 24.5019 127.723 24.5159 127.671 24.526C127.277 24.6399 126.876 24.7352 126.467 24.8102C112.272 28.5486 114.307 41.4627 114.316 41.5153C114.316 41.5153 114.31 41.5153 114.304 41.5153C115.515 43.4416 116.226 45.7159 116.226 48.1598C116.226 55.281 110.276 61.014 103.077 60.6579C96.8948 60.3521 91.7571 55.4006 91.2423 49.2311C90.6757 42.417 95.5739 36.6231 102.033 35.7565C102.385 35.7103 102.742 35.6771 103.104 35.6598C103.503 35.641 103.903 35.5561 104.258 35.3688C113.714 30.3713 112.794 19.6033 112.043 15.4752C111.968 15.1653 111.905 14.8494 111.853 14.5309C111.75 14.0711 111.675 13.8131 111.675 13.8131L111.738 13.7702C111.698 13.3564 111.675 12.9381 111.675 12.5143ZM69.5861 18.0055C76.4968 18.0055 82.0997 23.6084 82.0997 30.5192C82.0996 37.4299 76.4968 43.0329 69.5861 43.0329C62.6754 43.0327 57.0725 37.4298 57.0724 30.5192C57.0724 23.6085 62.6754 18.0056 69.5861 18.0055ZM178.037 18.0055C184.948 18.0056 190.551 23.6084 190.551 30.5192C190.551 37.4298 184.948 43.0328 178.037 43.0329C171.126 43.0329 165.524 37.4299 165.524 30.5192C165.524 23.6084 171.126 18.0055 178.037 18.0055Z" fill="url(#paint0_linear_16893_308)"/>
</g>
<path d="M303.855 62.983C303.855 69.5047 298.567 74.7922 292.046 74.7922C285.524 74.7922 280.236 69.5047 280.236 62.983C280.236 56.4614 285.524 51.1739 292.046 51.1739C298.567 51.1739 303.855 56.4614 303.855 62.983Z" fill="url(#paint1_linear_16893_308)"/>
<path d="M301.791 157.457H281.453V82.665H301.791V157.457Z" fill="#1275F9"/>
<path d="M343.78 158.112H317.537L378.551 51.1738H405.45L467.12 158.112H359.525L375.927 129.902H423.164C412.667 111.532 391.673 74.6608 391.673 74.1359C391.673 73.6111 359.744 129.902 343.78 158.112Z" fill="#0E213B"/>
<path d="M566.188 51.1738C575.372 51.1738 585.214 55.1099 592.431 60.3584C599.647 65.6071 608.832 84.6336 601.615 101.035C595.842 114.156 581.278 120.061 574.717 121.373L609.488 158.112H579.309L546.506 122.685H505.829V158.112H482.867V51.1738H566.188ZM505.829 71.5117V102.347H567.5C572.53 101.69 582.458 97.3604 581.934 85.2891C581.934 81.1339 579.046 72.5615 567.5 71.5117H505.829Z" fill="#0E213B"/>
<path d="M668.533 72.1679H624.576V51.1738H735.451V72.1679H691.495V158.113H668.533V72.1679Z" fill="#0E213B"/>
<path d="M735.223 194.275C735.223 197.652 732.459 200.996 727.308 200.996C722.532 200.996 719.154 198.335 719.086 194.411H722.395C722.6 196.39 723.999 198.369 727.308 198.369C730.31 198.369 732.084 196.663 732.084 194.411C732.084 187.998 719.222 192.092 719.222 183.256C719.222 179.332 722.395 176.671 727.103 176.671C731.64 176.671 734.608 179.162 734.984 182.778H731.572C731.367 181.175 729.866 179.367 726.967 179.332C724.408 179.264 722.395 180.595 722.395 183.153C722.395 189.294 735.223 185.473 735.223 194.275Z" fill="#0570F3"/>
<path d="M697.567 176.944V179.503H687.878V187.452H696.543V190.011H687.878V198.198H697.567V200.757H684.773V176.944H697.567Z" fill="#0570F3"/>
<path d="M657.562 200.757V176.978H660.667V200.757H657.562Z" fill="#0570F3"/>
<path d="M624.284 176.705C629.299 176.705 633.461 179.298 635.235 183.87H631.517C630.22 181.106 627.627 179.503 624.284 179.503C619.269 179.503 615.516 183.119 615.516 188.85C615.516 194.548 619.269 198.164 624.284 198.164C628.958 198.164 632.165 195.162 632.642 190.454H623.158V187.929H635.952V190.317C635.406 196.219 630.732 200.961 624.284 200.961C617.597 200.961 612.344 195.981 612.344 188.85C612.344 181.72 617.597 176.705 624.284 176.705Z" fill="#0570F3"/>
<path d="M590.59 188.85C590.59 195.981 585.37 200.996 578.649 200.996C571.963 200.996 566.709 195.981 566.709 188.85C566.709 181.72 571.963 176.705 578.649 176.705C585.37 176.705 590.59 181.72 590.59 188.85ZM569.882 188.85C569.882 194.65 573.634 198.3 578.649 198.3C583.664 198.3 587.417 194.65 587.417 188.85C587.417 183.017 583.664 179.4 578.649 179.4C573.634 179.4 569.882 183.017 569.882 188.85Z" fill="#0570F3"/>
<path d="M534.328 176.978H537.433V198.232H545.757V200.757H534.328V176.978Z" fill="#0570F3"/>
<path d="M511.414 188.85C511.414 195.981 506.194 200.996 499.474 200.996C492.787 200.996 487.533 195.981 487.533 188.85C487.533 181.72 492.787 176.705 499.474 176.705C506.194 176.705 511.414 181.72 511.414 188.85ZM490.706 188.85C490.706 194.65 494.459 198.3 499.474 198.3C504.489 198.3 508.241 194.65 508.241 188.85C508.241 183.017 504.489 179.4 499.474 179.4C494.459 179.4 490.706 183.017 490.706 188.85Z" fill="#0570F3"/>
<path d="M460.167 176.944H463.271V200.757H460.167L447.681 181.823V200.757H444.576V176.944H447.681L460.167 195.844V176.944Z" fill="#0570F3"/>
<path d="M417.387 200.757V189.976H405.276V200.757H402.172V176.978H405.276V187.418H417.387V176.978H420.492V200.757H417.387Z" fill="#0570F3"/>
<path d="M355.846 188.851C355.846 181.72 361.065 176.671 367.718 176.671C372.869 176.671 376.963 179.264 378.737 183.87H375.019C373.722 181.004 371.198 179.401 367.718 179.401C362.737 179.401 359.018 183.017 359.018 188.851C359.018 194.65 362.737 198.266 367.718 198.266C371.198 198.266 373.722 196.663 375.019 193.831H378.737C376.963 198.403 372.869 200.962 367.718 200.962C361.065 200.962 355.846 195.981 355.846 188.851Z" fill="#0570F3"/>
<path d="M332.178 176.944V179.503H322.489V187.452H331.155V190.011H322.489V198.198H332.178V200.757H319.385V176.944H332.178Z" fill="#0570F3"/>
<path d="M279.334 179.503V176.978H295.436V179.503H288.955V200.757H285.85V179.503H279.334Z" fill="#0570F3"/>
<defs>
<filter id="filter0_ii_16893_308" x="0" y="0" width="247.992" height="252" filterUnits="userSpaceOnUse" color-interpolation-filters="sRGB">
<feFlood flood-opacity="0" result="BackgroundImageFix"/>
<feBlend mode="normal" in="SourceGraphic" in2="BackgroundImageFix" result="shape"/>
<feColorMatrix in="SourceAlpha" type="matrix" values="0 0 0 0 0 0 0 0 0 0 0 0 0 0 0 0 0 0 127 0" result="hardAlpha"/>
<feOffset dy="4"/>
<feGaussianBlur stdDeviation="2.75"/>
<feComposite in2="hardAlpha" operator="arithmetic" k2="-1" k3="1"/>
<feColorMatrix type="matrix" values="0 0 0 0 0.0705882 0 0 0 0 0.843137 0 0 0 0 0.996078 0 0 0 1 0"/>
<feBlend mode="normal" in2="shape" result="effect1_innerShadow_16893_308"/>
<feColorMatrix in="SourceAlpha" type="matrix" values="0 0 0 0 0 0 0 0 0 0 0 0 0 0 0 0 0 0 127 0" result="hardAlpha"/>
<feOffset dy="4"/>
<feGaussianBlur stdDeviation="2.75"/>
<feComposite in2="hardAlpha" operator="arithmetic" k2="-1" k3="1"/>
<feColorMatrix type="matrix" values="0 0 0 0 0.0392157 0 0 0 0 0.435294 0 0 0 0 0.956863 0 0 0 0.4 0"/>
<feBlend mode="normal" in2="effect1_innerShadow_16893_308" result="effect2_innerShadow_16893_308"/>
</filter>
<linearGradient id="paint0_linear_16893_308" x1="123.996" y1="248" x2="123.996" y2="0" gradientUnits="userSpaceOnUse">
<stop offset="0.274038" stop-color="#0A78F5"/>
<stop offset="1" stop-color="#12D7FE"/>
</linearGradient>
<linearGradient id="paint1_linear_16893_308" x1="292.046" y1="51.1739" x2="292.046" y2="74.7922" gradientUnits="userSpaceOnUse">
<stop stop-color="#12D7FE"/>
<stop offset="1" stop-color="#0C75F5"/>
</linearGradient>
</defs>
</svg>
